inDegrees=no
num_controls=7
num_derivatives=13
num_iterations=87
num_multipliers=7
num_parameters=0
num_slacks=7
num_states=26
objective=0.497732
objective_accelerations=0.034200
objective_balance=0.003653
objective_effort=0.035832
objective_height=0.418554
objective_ligament=0.005493
solver_duration=1000.059975
status=Solve_Succeeded
success=true
DataType=double
version=3
OpenSimVersion=4.5
endheader
time	/jointset/ground_pelvis/pelvis_tilt/value	/jointset/ground_pelvis/pelvis_tx/value	/jointset/ground_pelvis/pelvis_ty/value	/jointset/hip_r/hip_flexion_r/value	/jointset/hip_r/hip_adduction_r/value	/jointset/hip_r/hip_rotation_r/value	/jointset/back/lumbar_extension/value	/jointset/patellofemoral_r/patellar_flexion_r/value	/jointset/knee_r/knee_flexion_r/value	/jointset/knee_r/knee_adduction_r/value	/jointset/knee_r/knee_rotation_r/value	/jointset/ankle_r/ankle_angle_r/value	/jointset/subtalar_r/subtalar_angle_r/value	/jointset/ground_pelvis/pelvis_tilt/speed	/jointset/ground_pelvis/pelvis_tx/speed	/jointset/ground_pelvis/pelvis_ty/speed	/jointset/hip_r/hip_flexion_r/speed	/jointset/hip_r/hip_adduction_r/speed	/jointset/hip_r/hip_rotation_r/speed	/jointset/back/lumbar_extension/speed	/jointset/patellofemoral_r/patellar_flexion_r/speed	/jointset/knee_r/knee_flexion_r/speed	/jointset/knee_r/knee_adduction_r/speed	/jointset/knee_r/knee_rotation_r/speed	/jointset/ankle_r/ankle_angle_r/speed	/jointset/subtalar_r/subtalar_angle_r/speed	/forceset/tau_hip_flexion_r	/forceset/tau_hip_adduction_r	/forceset/tau_hip_rotation_r	/forceset/tau_knee_flexion_r	/forceset/tau_ankle_angle_r	/forceset/tau_subtalar_angle_r	/forceset/tau_lumbar_extension	lambda_cid13_p0	lambda_cid14_p0	lambda_cid14_p1	lambda_cid14_p2	lambda_cid14_p3	lambda_cid14_p4	lambda_cid14_p5	/jointset/ground_pelvis/pelvis_tilt/accel	/jointset/ground_pelvis/pelvis_tx/accel	/jointset/ground_pelvis/pelvis_ty/accel	/jointset/hip_r/hip_flexion_r/accel	/jointset/hip_r/hip_adduction_r/accel	/jointset/hip_r/hip_rotation_r/accel	/jointset/back/lumbar_extension/accel	/jointset/patellofemoral_r/patellar_flexion_r/accel	/jointset/knee_r/knee_flexion_r/accel	/jointset/knee_r/knee_adduction_r/accel	/jointset/knee_r/knee_rotation_r/accel	/jointset/ankle_r/ankle_angle_r/accel	/jointset/subtalar_r/subtalar_angle_r/accel	gamma_cid13_p0	gamma_cid14_p0	gamma_cid14_p1	gamma_cid14_p2	gamma_cid14_p3	gamma_cid14_p4	gamma_cid14_p5
0.5	-0.1175895293773881	0.0400354955590908	0.8592388657697364	0.732574028298602	-0.2300714885378374	-0.1316535177547553	-0.3184718209854142	0.6920066358377082	0.6920066358376873	0.04126926565905999	0.1743614182933669	0.2473617743780522	0.05197067704804247	-0.3111321900741995	-0.1187507464126559	-0.3418620249716018	1.511624795692122	-0.005705719335303813	0.2626213859447815	-0.5945925375863439	1.676905336913409	1.676905336913414	-0.2791793429946731	-0.0008638056670736974	0.5646159669909532	0.1497438512335308	-0.08639753015223929	-0.01927528709609619	0.00853812856542905	-0.3393670416730305	0.07828868993635439	-0.01178041167885684	0.1423006368060314	-31.78303588664679	-17.14682418715875	-4.24729803242256	-3.2847600199852	2.554848480141431	-669.0466807027058	59.10661466550385	0.12032472995782	0.3107420491131455	-0.3629281361516032	-0.885862639321724	-0.04130796547497923	-0.5414916989051456	1.31292682317133	-1.09087597183591	-1.09087597183593	0.3858304235956446	0.006815062101281306	-0.4531996947868536	-0.06638462145083514	-1.039723346439754e-07	-1.64160284250438e-07	3.646180281610987e-07	-1.240247959742726e-06	6.220645794094604e-08	-2.173482404960815e-07	6.754097870453169e-07
0.51	-0.1206943589119536	0.03886364176286098	0.8558028377870901	0.7476437208250699	-0.2301313568190941	-0.1290530650468163	-0.3243516319991852	0.7087186209959133	0.708718620995842	0.03849924296926453	0.1743528479044432	0.2529841404687188	0.05346344807528486	-0.3097964416585245	-0.1156102909999848	-0.3452686652650927	1.502117694787248	-0.006271544317441428	0.2574818188922093	-0.5813126403635829	1.665255253551024	1.665255253551027	-0.2747858644826272	-0.0008591067223792815	0.5597715534066117	0.1487773059672355	-0.09163090956424881	-0.01761560706716307	0.009194516527136308	-0.3426601324038945	0.0751693541384986	-0.01136672444860515	0.1470591845632988	-30.82333250150048	-18.30231023050876	-4.398564518888418	-3.113735926672817	3.005122405050274	-672.2537944055804	58.85737667852985	0.1457774126394843	0.3171698463719251	-0.3183404821053586	-1.012554697743512	-0.06493725175156309	-0.4984653151825247	1.344074892410031	-1.237520956444729	-1.237520956444966	0.4719872751138798	-0.004252123378555151	-0.5129208332516412	-0.116845572840334	-8.615945304762402e-08	-1.144119540500236e-07	4.668550726238647e-07	-8.722575749897742e-07	2.008482045859113e-08	-1.65208834580038e-07	5.924888921397545e-07
0.52	-0.1237847154593067	0.0377234870325637	0.8523349817002774	0.7626124581661529	-0.2301970268476068	-0.1265036632307487	-0.3300969332966135	0.7253070160329139	0.7253070160327661	0.03577433120661371	0.1743440146181246	0.258555490694943	0.05494554243114022	-0.3082375926321834	-0.1124109332261464	-0.3482276458048616	1.491433758615443	-0.006866068786328484	0.2524112075696789	-0.567690594317571	1.652187312668444	1.652187312668445	-0.2701571575663912	-0.0009163851389643299	0.5544127941025171	0.147608516956083	-0.09686428897627988	-0.0159559270381948	0.009850904488464486	-0.3459532231347531	0.07205001834065869	-0.0109530372182879	0.1518177323205379	-29.85592917227621	-19.46206299958472	-4.548450541510125	-2.945362861750503	3.441595933707229	-675.5329022151949	58.67057283307633	0.1649448520910171	0.322522521346642	-0.2733961854072004	-1.12122969270768	-0.04704786282493353	-0.5277005528967917	1.381356587821476	-1.374447475874726	-1.374447475874782	0.4328761044337038	-0.005580410154616466	-0.5560688387374505	-0.1068333704222949	-6.083491821010931e-08	-1.179379398026191e-08	8.072110184513585e-07	-1.317145096940386e-07	-8.363306061050827e-08	-4.996203574137607e-08	5.10210533098605e-07
0.53	-0.1268583669558865	0.03661563041709889	0.8488397899034406	0.7774686730396171	-0.2302683033262339	-0.1240069433202919	-0.335704100925112	0.7417579903235603	0.7417579903233463	0.03309451061382276	0.174335675326152	0.2640710479319646	0.05641570017617355	-0.3064414644325399	-0.109148197512133	-0.3507324840732706	1.479601472192802	-0.007400878844159054	0.2469768251691909	-0.5536800215945686	1.637791030849674	1.637791030849683	-0.2657412646449228	-0.0007747585136138262	0.5486291070643318	0.1463823187592226	-0.1023027284700722	-0.01430454577376736	0.0105310967886906	-0.3489986283222007	0.06867370571626967	-0.01058166705936781	0.1567455198084803	-28.88195474572458	-20.70912745518841	-4.735022293427378	-2.767691712265171	3.905784970246113	-678.8714110223733	58.42537663885238	0.1946351940282305	0.3299503274262441	-0.2272911098545043	-1.245385776814492	-0.05832168698442184	-0.5447381910162874	1.420344082623171	-1.504686219899963	-1.504686219898718	0.4559529660143775	0.0206014139307717	-0.599977268284645	-0.136434712202648	-3.536839098882544e-08	7.838058364008489e-08	1.07488854046581e-06	5.187192126874334e-07	-1.714513630796738e-07	4.736241945296418e-08	4.408222970554521e-07
0.54	-0.1299125194924362	0.03554076140497402	0.8453218970314604	0.7922003335169034	-0.2303452527273653	-0.1215632534553319	-0.3411692755327654	0.7580585082590147	0.7580585082587321	0.0304608503662643	0.1743280657434399	0.2695266765722195	0.05787241160566203	-0.3043378006278233	-0.1058134125581588	-0.3527678608335227	1.466522879379275	-0.008000653290893018	0.2418051984730521	-0.5392919901482343	1.622096041630032	1.622096041630049	-0.2609250885230174	-0.0007704432862275573	0.5424270747491238	0.1449192538469721	-0.1077411679639042	-0.01265316450933707	0.01121128908894372	-0.3520440335096574	0.0652973930918791	-0.01021029690045057	0.1616733072963862	-27.9021668134212	-21.96258453862574	-4.922438344157753	-2.590199413794643	4.37292838429856	-682.3074806524193	58.19876931622449	0.2264519731056161	0.3369323693388115	-0.1795038837758373	-1.37049097088482	-0.06004074060567254	-0.4751494120269245	1.456848332487829	-1.634188956049088	-1.634188956049085	0.5129327445211892	-0.03304268974746778	-0.6397378941419893	-0.1542067135003618	-9.744765811030996e-09	1.547873721674618e-07	1.262155891453065e-06	1.069457491844612e-06	-2.416786424169973e-07	1.248578987003951e-07	3.856954736909339e-07
0.55	-0.1329443265499998	0.03449955518032199	0.8417860253745733	0.8067953215446683	-0.2304280078173168	-0.1191721511021499	-0.3464886770795362	0.7741956181719457	0.7741956181717226	0.02787499612089454	0.1743208947182707	0.2749183392149313	0.05931406762644321	-0.301984738666803	-0.102418978296691	-0.3543237752044829	1.452277177023525	-0.008554878580504775	0.2364260098145122	-0.5245357783190542	1.605103525153353	1.605103525153373	-0.25621260622555	-0.0006704381997676634	0.5358347086705401	0.1433799533807814	-0.112868417668427	-0.01110352730058651	0.01180437992126787	-0.3554673586754195	0.06241370768782262	-0.009883356526962797	0.16635593980678	-26.91763162199173	-23.06614856367941	-5.105624711592435	-2.410276055654885	4.761515252059621	-685.8231406318682	58.01946826888867	0.2455787743293075	0.3419710689959119	-0.1311974872204643	-1.481221185702457	-0.05346102131047323	-0.5676235932753736	1.492888741111349	-1.765146210151977	-1.765146210151381	0.4556278836401909	0.03079609577635053	-0.6796366782882022	-0.1582155309698633	5.510664612414707e-09	1.986108838229197e-07	1.37004374015426e-06	1.380706538055185e-06	-2.823529646374918e-07	1.684735304148057e-07	3.71479734791265e-07
